<svg width="144" height="67" viewBox="0 0 144 67" fill="none" xmlns="http://www.w3.org/2000/svg">
<path d="M11.68 24L23.8 17V42.6C23.8 43.2933 23.6267 44.04 23.28 44.84C22.96 45.64 22.5333 46.3867 22 47.08C21.4933 47.7467 20.9333 48.2533 20.32 48.6L11.68 53.6C10.7467 54.1333 9.93333 54.2 9.24 53.8C8.54667 53.4 8.2 52.6667 8.2 51.6V42L11.68 40V49.6L20.32 44.6V19C20.32 19.6933 20.16 20.44 19.84 21.24C19.52 22.04 19.0933 22.7867 18.56 23.48C18.0267 24.1467 17.4533 24.6533 16.84 25L11.68 28V24ZM20.32 19V44.6L16.84 42.6V17L20.32 19ZM20.32 44.6L11.68 49.6L8.2 47.6L16.84 42.6L20.32 44.6ZM23.8 17L11.68 24L8.2 22L20.32 15L23.8 17ZM11.68 24V28L8.2 26V22L11.68 24ZM11.68 40L8.2 42L4.72 40L8.2 38L11.68 40ZM8.2 42V51.6C8.2 52.6667 8.54667 53.4 9.24 53.8L5.76 51.8C5.06667 51.4 4.72 50.6667 4.72 49.6V40L8.2 42ZM30.7391 32.4L41.1391 26.4C42.0457 25.8667 42.8457 25.8 43.5391 26.2C44.2324 26.6 44.5791 27.3333 44.5791 28.4V47.6L41.1391 49.6V45.6C41.1391 46.2933 40.9791 47.04 40.6591 47.84C40.3391 48.64 39.9124 49.3867 39.3791 50.08C38.8457 50.7467 38.2724 51.2533 37.6591 51.6L34.2191 53.6C33.2857 54.1333 32.4724 54.2 31.7791 53.8C31.0857 53.4 30.7391 52.6667 30.7391 51.6V46C30.7391 45.28 30.8991 44.5333 31.2191 43.76C31.5391 42.96 31.9657 42.2267 32.4991 41.56C33.0324 40.8667 33.6057 40.3467 34.2191 40L41.1391 36V30.4L30.7391 36.4V32.4ZM34.2191 49.6L41.1391 45.6V40L34.2191 44V49.6ZM41.1391 30.4V36L37.6591 34V28.4L41.1391 30.4ZM41.1391 45.6V49.6L37.6591 47.6V43.6L41.1391 45.6ZM41.1391 40V45.6L37.6591 43.6V38L41.1391 40ZM41.1391 45.6L34.2191 49.6L30.7391 47.6L37.6591 43.6L41.1391 45.6ZM41.1391 36L34.2191 40C33.6057 40.3467 33.0324 40.8667 32.4991 41.56C31.9657 42.2267 31.5391 42.96 31.2191 43.76C30.8991 44.5333 30.7391 45.28 30.7391 46V51.6C30.7391 52.6667 31.0857 53.4 31.7791 53.8L28.2991 51.8C27.6057 51.4 27.2591 50.6667 27.2591 49.6V44C27.2591 43.28 27.4191 42.5333 27.7391 41.76C28.0591 40.96 28.4857 40.2267 29.0191 39.56C29.5524 38.8667 30.1257 38.3467 30.7391 38L37.6591 34L41.1391 36ZM43.5391 26.2C42.8457 25.8 42.0457 25.8667 41.1391 26.4L30.7391 32.4L27.2591 30.4L37.6591 24.4C38.5924 23.8667 39.4057 23.8 40.0991 24.2L43.5391 26.2ZM30.7391 32.4V36.4L27.2591 34.4V30.4L30.7391 32.4ZM51.5203 32.4L55.0003 30.4V34.4C55.0003 33.68 55.1603 32.9333 55.4803 32.16C55.8003 31.36 56.2136 30.6267 56.7203 29.96C57.2536 29.2667 57.827 28.7467 58.4403 28.4L59.4803 27.8C60.4136 27.2667 61.227 27.2 61.9203 27.6C62.6136 28 62.9603 28.7333 62.9603 29.8C62.9603 29.08 63.1203 28.3333 63.4403 27.56C63.7603 26.76 64.1736 26.0267 64.6803 25.36C65.2136 24.6667 65.787 24.1467 66.4003 23.8L67.4403 23.2C68.3736 22.6667 69.187 22.6 69.8803 23C70.5736 23.4 70.9203 24.1333 70.9203 25.2V42.8L67.4403 44.8V27.2L62.9603 29.8V47.4L59.4803 49.4V31.8L55.0003 34.4V52L51.5203 54V32.4ZM67.4403 27.2V44.8L64.0003 42.8V25.2L67.4403 27.2ZM59.4803 31.8V49.4L56.0003 47.4V29.8L59.4803 31.8ZM69.8803 23C69.187 22.6 68.3736 22.6667 67.4403 23.2L66.4003 23.8C65.787 24.1467 65.2136 24.6667 64.6803 25.36C64.1736 26.0267 63.7603 26.76 63.4403 27.56C63.1203 28.3333 62.9603 29.08 62.9603 29.8L59.4803 27.8C59.4803 27.08 59.6403 26.3333 59.9603 25.56C60.2803 24.76 60.707 24.0267 61.2403 23.36C61.7736 22.6667 62.347 22.1467 62.9603 21.8L64.0003 21.2C64.907 20.6667 65.707 20.6 66.4003 21L69.8803 23ZM51.5203 32.4V54L48.0403 52V30.4L51.5203 32.4ZM61.9203 27.6C61.227 27.2 60.4136 27.2667 59.4803 27.8L58.4403 28.4C57.827 28.7467 57.2536 29.2667 56.7203 29.96C56.2136 30.6267 55.8003 31.36 55.4803 32.16C55.1603 32.9333 55.0003 33.68 55.0003 34.4L51.5203 32.4C51.5203 31.68 51.6803 30.9333 52.0003 30.16C52.3203 29.36 52.747 28.6267 53.2803 27.96C53.8136 27.2667 54.387 26.7467 55.0003 26.4L56.0003 25.8C56.9336 25.2667 57.747 25.2 58.4403 25.6L61.9203 27.6ZM55.0003 30.4L51.5203 32.4L48.0403 30.4L51.5203 28.4L55.0003 30.4ZM91.7191 30.4L98.6391 26.4C99.5457 25.8667 100.346 25.8 101.039 26.2C101.732 26.6 102.079 27.3333 102.079 28.4V43.6C102.079 44.2933 101.919 45.04 101.599 45.84C101.279 46.64 100.852 47.3867 100.319 48.08C99.8124 48.7467 99.2524 49.2533 98.6391 49.6L91.7191 53.6C90.7857 54.1333 89.9724 54.2 89.2791 53.8C88.5857 53.4 88.2391 52.6667 88.2391 51.6V36.4C88.2391 35.68 88.3991 34.9333 88.7191 34.16C89.0391 33.36 89.4657 32.6267 89.9991 31.96C90.5324 31.2667 91.1057 30.7467 91.7191 30.4ZM91.7191 49.6L98.6391 45.6V30.4L91.7191 34.4V49.6ZM98.6391 30.4V45.6L95.1591 43.6V28.4L98.6391 30.4ZM98.6391 45.6L91.7191 49.6L88.2391 47.6L95.1591 43.6L98.6391 45.6ZM101.039 26.2C100.346 25.8 99.5457 25.8667 98.6391 26.4L91.7191 30.4C91.1057 30.7467 90.5324 31.2667 89.9991 31.96C89.4657 32.6267 89.0391 33.36 88.7191 34.16C88.3991 34.9333 88.2391 35.68 88.2391 36.4V51.6C88.2391 52.6667 88.5857 53.4 89.2791 53.8L85.7991 51.8C85.1057 51.4 84.7591 50.6667 84.7591 49.6V34.4C84.7591 33.68 84.9191 32.9333 85.2391 32.16C85.5591 31.36 85.9857 30.6267 86.5191 29.96C87.0524 29.2667 87.6257 28.7467 88.2391 28.4L95.1591 24.4C96.0924 23.8667 96.9057 23.8 97.5991 24.2L101.039 26.2ZM109.02 34L112.5 32V49.6L119.42 45.6V28L122.86 26V47.6L119.42 49.6V45.6C119.42 46.2933 119.26 47.04 118.94 47.84C118.62 48.64 118.194 49.3867 117.66 50.08C117.127 50.7467 116.554 51.2533 115.94 51.6L112.5 53.6C111.567 54.1333 110.754 54.2 110.06 53.8C109.367 53.4 109.02 52.6667 109.02 51.6V34ZM119.42 45.6V49.6L115.94 47.6V43.6L119.42 45.6ZM122.86 26L119.42 28L115.94 26L119.42 24L122.86 26ZM119.42 28V45.6L115.94 43.6V26L119.42 28ZM112.5 32L109.02 34L105.54 32L109.02 30L112.5 32ZM119.42 45.6L112.5 49.6L109.02 47.6L115.94 43.6L119.42 45.6ZM109.02 34V51.6C109.02 52.6667 109.367 53.4 110.06 53.8L106.58 51.8C105.887 51.4 105.54 50.6667 105.54 49.6V32L109.02 34ZM131.522 37L128.082 39V35L131.522 33V29L135.002 27V35C135.002 34.28 135.162 33.5333 135.482 32.76C135.802 31.96 136.215 31.2267 136.722 30.56C137.255 29.8667 137.828 29.3467 138.442 29L141.922 27V31L135.002 35V50.2L141.922 46.2V50.2L135.002 54.2C134.068 54.7333 133.255 54.8 132.562 54.4C131.868 54 131.522 53.2667 131.522 52.2V37ZM141.922 46.2L135.002 50.2L131.522 48.2L138.442 44.2L141.922 46.2ZM141.922 27L138.442 29C137.828 29.3467 137.255 29.8667 136.722 30.56C136.215 31.2267 135.802 31.96 135.482 32.76C135.162 33.5333 135.002 34.28 135.002 35L131.522 33C131.522 32.28 131.682 31.5333 132.002 30.76C132.322 29.96 132.748 29.2267 133.282 28.56C133.815 27.8667 134.388 27.3467 135.002 27L138.442 25L141.922 27ZM131.522 33L128.082 35L124.602 33L128.082 31L131.522 33ZM131.522 37V52.2C131.522 53.2667 131.868 54 132.562 54.4L129.122 52.4C128.428 52 128.082 51.2667 128.082 50.2V35L131.522 37ZM135.002 27L131.522 29L128.082 27L131.522 25L135.002 27ZM131.522 29V33L128.082 31V27L131.522 29ZM128.082 35V39L124.602 37V33L128.082 35Z" fill="#68D15E"/>
<path d="M8.68 23L20.8 16V41.6C20.8 42.2933 20.6267 43.04 20.28 43.84C19.96 44.64 19.5333 45.3867 19 46.08C18.4933 46.7467 17.9333 47.2533 17.32 47.6L8.68 52.6C7.74667 53.1333 6.93333 53.2 6.24 52.8C5.54667 52.4 5.2 51.6667 5.2 50.6V41L8.68 39V48.6L17.32 43.6V18C17.32 18.6933 17.16 19.44 16.84 20.24C16.52 21.04 16.0933 21.7867 15.56 22.48C15.0267 23.1467 14.4533 23.6533 13.84 24L8.68 27V23ZM17.32 18V43.6L13.84 41.6V16L17.32 18ZM17.32 43.6L8.68 48.6L5.2 46.6L13.84 41.6L17.32 43.6ZM20.8 16L8.68 23L5.2 21L17.32 14L20.8 16ZM8.68 23V27L5.2 25V21L8.68 23ZM8.68 39L5.2 41L1.72 39L5.2 37L8.68 39ZM5.2 41V50.6C5.2 51.6667 5.54667 52.4 6.24 52.8L2.76 50.8C2.06667 50.4 1.72 49.6667 1.72 48.6V39L5.2 41ZM27.7391 31.4L38.1391 25.4C39.0457 24.8667 39.8457 24.8 40.5391 25.2C41.2324 25.6 41.5791 26.3333 41.5791 27.4V46.6L38.1391 48.6V44.6C38.1391 45.2933 37.9791 46.04 37.6591 46.84C37.3391 47.64 36.9124 48.3867 36.3791 49.08C35.8457 49.7467 35.2724 50.2533 34.6591 50.6L31.2191 52.6C30.2857 53.1333 29.4724 53.2 28.7791 52.8C28.0857 52.4 27.7391 51.6667 27.7391 50.6V45C27.7391 44.28 27.8991 43.5333 28.2191 42.76C28.5391 41.96 28.9657 41.2267 29.4991 40.56C30.0324 39.8667 30.6057 39.3467 31.2191 39L38.1391 35V29.4L27.7391 35.4V31.4ZM31.2191 48.6L38.1391 44.6V39L31.2191 43V48.6ZM38.1391 29.4V35L34.6591 33V27.4L38.1391 29.4ZM38.1391 44.6V48.6L34.6591 46.6V42.6L38.1391 44.6ZM38.1391 39V44.6L34.6591 42.6V37L38.1391 39ZM38.1391 44.6L31.2191 48.6L27.7391 46.6L34.6591 42.6L38.1391 44.6ZM38.1391 35L31.2191 39C30.6057 39.3467 30.0324 39.8667 29.4991 40.56C28.9657 41.2267 28.5391 41.96 28.2191 42.76C27.8991 43.5333 27.7391 44.28 27.7391 45V50.6C27.7391 51.6667 28.0857 52.4 28.7791 52.8L25.2991 50.8C24.6057 50.4 24.2591 49.6667 24.2591 48.6V43C24.2591 42.28 24.4191 41.5333 24.7391 40.76C25.0591 39.96 25.4857 39.2267 26.0191 38.56C26.5524 37.8667 27.1257 37.3467 27.7391 37L34.6591 33L38.1391 35ZM40.5391 25.2C39.8457 24.8 39.0457 24.8667 38.1391 25.4L27.7391 31.4L24.2591 29.4L34.6591 23.4C35.5924 22.8667 36.4057 22.8 37.0991 23.2L40.5391 25.2ZM27.7391 31.4V35.4L24.2591 33.4V29.4L27.7391 31.4ZM48.5203 31.4L52.0003 29.4V33.4C52.0003 32.68 52.1603 31.9333 52.4803 31.16C52.8003 30.36 53.2136 29.6267 53.7203 28.96C54.2536 28.2667 54.827 27.7467 55.4403 27.4L56.4803 26.8C57.4136 26.2667 58.227 26.2 58.9203 26.6C59.6136 27 59.9603 27.7333 59.9603 28.8C59.9603 28.08 60.1203 27.3333 60.4403 26.56C60.7603 25.76 61.1736 25.0267 61.6803 24.36C62.2136 23.6667 62.787 23.1467 63.4003 22.8L64.4403 22.2C65.3736 21.6667 66.187 21.6 66.8803 22C67.5736 22.4 67.9203 23.1333 67.9203 24.2V41.8L64.4403 43.8V26.2L59.9603 28.8V46.4L56.4803 48.4V30.8L52.0003 33.4V51L48.5203 53V31.4ZM64.4403 26.2V43.8L61.0003 41.8V24.2L64.4403 26.2ZM56.4803 30.8V48.4L53.0003 46.4V28.8L56.4803 30.8ZM66.8803 22C66.187 21.6 65.3736 21.6667 64.4403 22.2L63.4003 22.8C62.787 23.1467 62.2136 23.6667 61.6803 24.36C61.1736 25.0267 60.7603 25.76 60.4403 26.56C60.1203 27.3333 59.9603 28.08 59.9603 28.8L56.4803 26.8C56.4803 26.08 56.6403 25.3333 56.9603 24.56C57.2803 23.76 57.707 23.0267 58.2403 22.36C58.7736 21.6667 59.347 21.1467 59.9603 20.8L61.0003 20.2C61.907 19.6667 62.707 19.6 63.4003 20L66.8803 22ZM48.5203 31.4V53L45.0403 51V29.4L48.5203 31.4ZM58.9203 26.6C58.227 26.2 57.4136 26.2667 56.4803 26.8L55.4403 27.4C54.827 27.7467 54.2536 28.2667 53.7203 28.96C53.2136 29.6267 52.8003 30.36 52.4803 31.16C52.1603 31.9333 52.0003 32.68 52.0003 33.4L48.5203 31.4C48.5203 30.68 48.6803 29.9333 49.0003 29.16C49.3203 28.36 49.747 27.6267 50.2803 26.96C50.8136 26.2667 51.387 25.7467 52.0003 25.4L53.0003 24.8C53.9336 24.2667 54.747 24.2 55.4403 24.6L58.9203 26.6ZM52.0003 29.4L48.5203 31.4L45.0403 29.4L48.5203 27.4L52.0003 29.4ZM88.7191 29.4L95.6391 25.4C96.5457 24.8667 97.3457 24.8 98.0391 25.2C98.7324 25.6 99.0791 26.3333 99.0791 27.4V42.6C99.0791 43.2933 98.9191 44.04 98.5991 44.84C98.2791 45.64 97.8524 46.3867 97.3191 47.08C96.8124 47.7467 96.2524 48.2533 95.6391 48.6L88.7191 52.6C87.7857 53.1333 86.9724 53.2 86.2791 52.8C85.5857 52.4 85.2391 51.6667 85.2391 50.6V35.4C85.2391 34.68 85.3991 33.9333 85.7191 33.16C86.0391 32.36 86.4657 31.6267 86.9991 30.96C87.5324 30.2667 88.1057 29.7467 88.7191 29.4ZM88.7191 48.6L95.6391 44.6V29.4L88.7191 33.4V48.6ZM95.6391 29.4V44.6L92.1591 42.6V27.4L95.6391 29.4ZM95.6391 44.6L88.7191 48.6L85.2391 46.6L92.1591 42.6L95.6391 44.6ZM98.0391 25.2C97.3457 24.8 96.5457 24.8667 95.6391 25.4L88.7191 29.4C88.1057 29.7467 87.5324 30.2667 86.9991 30.96C86.4657 31.6267 86.0391 32.36 85.7191 33.16C85.3991 33.9333 85.2391 34.68 85.2391 35.4V50.6C85.2391 51.6667 85.5857 52.4 86.2791 52.8L82.7991 50.8C82.1057 50.4 81.7591 49.6667 81.7591 48.6V33.4C81.7591 32.68 81.9191 31.9333 82.2391 31.16C82.5591 30.36 82.9857 29.6267 83.5191 28.96C84.0524 28.2667 84.6257 27.7467 85.2391 27.4L92.1591 23.4C93.0924 22.8667 93.9057 22.8 94.5991 23.2L98.0391 25.2ZM106.02 33L109.5 31V48.6L116.42 44.6V27L119.86 25V46.6L116.42 48.6V44.6C116.42 45.2933 116.26 46.04 115.94 46.84C115.62 47.64 115.194 48.3867 114.66 49.08C114.127 49.7467 113.554 50.2533 112.94 50.6L109.5 52.6C108.567 53.1333 107.754 53.2 107.06 52.8C106.367 52.4 106.02 51.6667 106.02 50.6V33ZM116.42 44.6V48.6L112.94 46.6V42.6L116.42 44.6ZM119.86 25L116.42 27L112.94 25L116.42 23L119.86 25ZM116.42 27V44.6L112.94 42.6V25L116.42 27ZM109.5 31L106.02 33L102.54 31L106.02 29L109.5 31ZM116.42 44.6L109.5 48.6L106.02 46.6L112.94 42.6L116.42 44.6ZM106.02 33V50.6C106.02 51.6667 106.367 52.4 107.06 52.8L103.58 50.8C102.887 50.4 102.54 49.6667 102.54 48.6V31L106.02 33ZM128.522 36L125.082 38V34L128.522 32V28L132.002 26V34C132.002 33.28 132.162 32.5333 132.482 31.76C132.802 30.96 133.215 30.2267 133.722 29.56C134.255 28.8667 134.828 28.3467 135.442 28L138.922 26V30L132.002 34V49.2L138.922 45.2V49.2L132.002 53.2C131.068 53.7333 130.255 53.8 129.562 53.4C128.868 53 128.522 52.2667 128.522 51.2V36ZM138.922 45.2L132.002 49.2L128.522 47.2L135.442 43.2L138.922 45.2ZM138.922 26L135.442 28C134.828 28.3467 134.255 28.8667 133.722 29.56C133.215 30.2267 132.802 30.96 132.482 31.76C132.162 32.5333 132.002 33.28 132.002 34L128.522 32C128.522 31.28 128.682 30.5333 129.002 29.76C129.322 28.96 129.748 28.2267 130.282 27.56C130.815 26.8667 131.388 26.3467 132.002 26L135.442 24L138.922 26ZM128.522 32L125.082 34L121.602 32L125.082 30L128.522 32ZM128.522 36V51.2C128.522 52.2667 128.868 53 129.562 53.4L126.122 51.4C125.428 51 125.082 50.2667 125.082 49.2V34L128.522 36ZM132.002 26L128.522 28L125.082 26L128.522 24L132.002 26ZM128.522 28V32L125.082 30V26L128.522 28ZM125.082 34V38L121.602 36V32L125.082 34Z" fill="#1A1A1B"/>
</svg>
